<svg viewBox="0 0 412.3 172.2" class="xxxxxxxooo-svg" xmlns="http://www.w3.org/2000/svg">
  <polyline points="3.5,3.5 23.4,23.4 23.4,169.7"/>
  <polyline points="22.4,3.5 2.5,23.4 2.5,169.7"/>
  <polyline points="46.3,3.5 66.2,23.4 66.2,169.7"/>
  <polyline points="65.2,3.5 45.3,23.4 45.3,169.7"/>
  <polyline points="89.2,3.5 109,23.4 109,169.7"/>
  <polyline points="108,3.5 88.2,23.4 88.2,169.7"/>
  <polyline points="132,3.5 151.8,23.4 151.8,169.7"/>
  <polyline points="150.8,3.5 131,23.4 131,169.7"/>
  <polyline points="174.8,3.5 194.6,23.4 194.6,169.7"/>
  <polyline points="193.6,3.5 173.8,23.4 173.8,169.7"/>
  <polyline points="217.6,3.5 237.4,23.4 237.4,169.7"/>
  <polyline points="236.4,3.5 216.6,23.4 216.6,169.7"/>
  <polyline points="260.4,3.5 280.2,23.4 280.2,169.7"/>
  <polyline points="279.2,3.5 259.4,23.4 259.4,169.7"/>
  <polyline points="323.1,169.5 323.1,2.5 303.7,20.9"/>
  <polyline points="302.7,2.5 302.7,169.5 322.1,151.2"/>
  <polyline points="366.4,169.5 366.4,2.5 347,20.9"/>
  <polyline points="346,2.5 346,169.5 365.4,151.2"/>
  <polyline points="409.7,169.5 409.7,2.5 390.4,20.9"/>
  <polyline points="389.4,2.5 389.4,169.5 408.7,151.2"/>
  <style>
    .xxxxxxxooo-svg {
      height: 50%;
      left: 50%;
      position: absolute;
      top: 50%;
      transform: translate(-50%, -50%);
      width: 50%;
    }

    .xxxxxxxooo-svg polyline {
      animation: sttrs 6666ms cubic-bezier(.2, 1, .2, 1) infinite;
      fill: none;
      stroke-dasharray: 333;
      stroke-dashoffset: 666;
      stroke-linecap: square;
      stroke-linejoin: round;
      stroke-width: 5;
      stroke: #000000;
    }

    .xxxxxxxooo-svg polyline:nth-child(1) {
      animation-delay: 100ms;
    }

    .xxxxxxxooo-svg polyline:nth-child(2) {
      animation-delay: 150ms;
    }

    .xxxxxxxooo-svg polyline:nth-child(3) {
      animation-delay: 200ms;
    }

    .xxxxxxxooo-svg polyline:nth-child(4) {
      animation-delay: 250ms;
    }

    .xxxxxxxooo-svg polyline:nth-child(5) {
      animation-delay: 300ms;
    }

    .xxxxxxxooo-svg polyline:nth-child(6) {
      animation-delay: 350ms;
    }

    .xxxxxxxooo-svg polyline:nth-child(7) {
      animation-delay: 400ms;
    }

    .xxxxxxxooo-svg polyline:nth-child(8) {
      animation-delay: 450ms;
    }

    .xxxxxxxooo-svg polyline:nth-child(9) {
      animation-delay: 500ms;
    }

    .xxxxxxxooo-svg polyline:nth-child(10) {
      animation-delay: 550ms;
    }

    .xxxxxxxooo-svg polyline:nth-child(11) {
      animation-delay: 600ms;
    }

    .xxxxxxxooo-svg polyline:nth-child(12) {
      animation-delay: 650ms;
    }

    .xxxxxxxooo-svg polyline:nth-child(13) {
      animation-delay: 700ms;
    }

    .xxxxxxxooo-svg polyline:nth-child(14) {
      animation-delay: 750ms;
    }

    .xxxxxxxooo-svg polyline:nth-child(15) {
      animation-delay: 800ms;
    }

    .xxxxxxxooo-svg polyline:nth-child(16) {
      animation-delay: 850ms;
    }

    .xxxxxxxooo-svg polyline:nth-child(17) {
      animation-delay: 900ms;
    }

    .xxxxxxxooo-svg polyline:nth-child(18) {
      animation-delay: 950ms;
    }

    .xxxxxxxooo-svg polyline:nth-child(19) {
      animation-delay: 1000ms;
    }

    .xxxxxxxooo-svg polyline:nth-child(20) {
      animation-delay: 1050ms;
    }

    @keyframes sttrs {
      0% {
        stroke-dashoffset: 666;
      }

      50% {
        stroke-dashoffset: 0;
      }

      75% {
        stroke-dashoffset: 666;
      }
    }
  </style>
</svg>
